<svg xmlns="http://www.w3.org/2000/svg" xmlns:xlink="http://www.w3.org/1999/xlink" preserveAspectRatio="xMidYMid meet" version="1.0" viewBox="-1.4 -0.0 502.3 489.5" zoomAndPan="magnify" style="fill: rgb(0, 0, 0);" original_string_length="8618"><g id="__id0_sn9lyhf27l" style="fill: rgb(230, 84, 37);"><path d="M460.9043,489.2372c-6.2734-3.3658-12.7111-6.4607-18.7904-10.1464 c-21.8174-13.2275-43.6157-26.4936-65.173-40.1371c-4.5226-2.8624-7.2296-2.2093-10.2523,1.4875 c-10.4842,12.8212-21.0209,25.5996-31.5399,38.3925c-1.3475,1.6387-2.7113,3.2639-4.0643,4.8982 c-3.5999,4.3483-7.9957,5.7799-12.9622,2.7278c-4.7469-2.9173-7.0069-6.9601-5.3484-12.9597 c5.1995-18.8099,9.9437-37.7465,15.2216-56.5336c1.3663-4.8631,0.0052-7.0578-4.1522-9.6631 c-19.0841-11.9596-37.9995-24.2026-56.6438-36.8329c-2.6023-1.7627-4.6607-6.2403-4.6566-9.458 c0.0056-4.17,3.4014-6.8722,8.1238-7.4688c11.749-1.4844,23.4517-3.3329,35.1913-4.8971 c13.6309-1.8163,27.3079-3.3149,40.8922-5.4202c1.8235-0.2826,4.0442-3.0436,4.6936-5.0957 c8.7828-27.7463,17.3036-55.5755,25.9313-83.3711c1.7114-5.5138,2.4789-11.1238,9.7012-13.4802 c5.9408-1.9383,8.2192-2.6589,10.8688,3.2681c4.585,10.2562,8.8197,20.6942,12.6522,31.2549 c5.7884,15.95,11.3005,32.0081,16.5057,48.1571c1.5921,4.94,3.8447,5.9904,8.7584,5.0466 c16.1965-3.1111,32.4265-6.1642,48.7582-8.4053c7.8452-1.0765,14.1703,2.6998,15.1216,7.7726 c1.2373,6.5983-2.0787,11.5081-7.4025,15.0891c-13.5825,9.1362-27.0105,18.5289-40.9267,27.1295 c-5.8082,3.5894-6.8256,6.9126-4.8466,13.352c8.0893,26.3198,15.6375,52.8084,23.1253,79.3082 c1.3641,4.8279,2.0457,9.9935,2.0904,15.0116C471.8346,484.2879,467.4521,487.99,460.9043,489.2372z M416.6939,353.0039 c-16.3436,2.4608-32.2453,4.6765-48.0508,7.4417c-2.1786,0.3811-4.892,3.1551-5.6237,5.3889 c-2.8358,8.6565-4.842,17.5798-7.3981,26.3335c-3.2743,11.2125-3.0508,12.1237,8.1113,16.625 c1.9185,0.7738,5.2496,0.6055,6.7728-0.5938c16.0144-12.6083,31.8341-25.4661,47.5649-38.4279 c1.312-1.0811,2.4395-3.5627,2.1729-5.1445C419.6191,360.9236,418.0954,357.3719,416.6939,353.0039z M426.7402,387.1331 c-14.3571,11.8143-27.6107,22.7206-41.5608,34.2001c20.968,12.8695,40.5755,24.904,61.7899,37.9248 C440.0207,434.4834,433.614,411.6413,426.7402,387.1331z M410.8768,332.9705c-6.9763-24.8451-13.6118-48.4775-20.2476-72.1101 c-0.3428,0.028-0.6854,0.0561-1.0282,0.0841c-6.3693,25.8765-12.7386,51.753-19.3416,78.5793 C384.4005,337.2423,397.2321,335.172,410.8768,332.9705z M343.1989,364.778c-16.819,2.1369-32.4152,4.1184-49.6574,6.3091 c14.5548,7.9091,27.5574,14.9749,41.3207,22.454C337.6805,383.8176,340.2408,374.984,343.1989,364.778z M449.6005,348.3823 c-0.1873-0.3404-0.3743-0.6808-0.5616-1.0211c-4.1883,0.8495-8.3768,1.6989-13.0651,2.6497 c0.9582,2.4455,1.5763,4.0229,2.3485,5.9933C442.4712,353.2004,446.0359,350.7914,449.6005,348.3823z M347.4062,421.0651 c-0.8442,4.6774-1.4292,7.9193-2.0143,11.1612c0.516,0.0912,1.0321,0.1826,1.548,0.2738c2.0011-2.3268,4.0022-4.6538,6.4076-7.4509 C351.4909,423.8042,350.0392,422.8308,347.4062,421.0651z" style="fill: inherit;"/><path d="M178.441,298.0156c1.7676,10.2021,3.6311,19.7096,5.0191,29.2859 c1.698,11.7176,3.6146,23.4577,4.2906,35.2537c0.6361,11.0992-9.2126,17.2315-18.2101,11.0957 c-9.5849-6.5362-18.1396-14.6414-26.8311-22.4113c-11.0978-9.9211-21.9688-20.1017-32.7431-30.3743 c-2.8465-2.7138-5.2989-3.3686-9.0747-1.968c-14.6338,5.4283-28.7135,11.8298-41.0479,21.5739 c-4.7207,3.7294-10.0107,4.759-14.6449,0.9431c-4.4819-3.6907-5.2702-9.1092-2.3931-14.4451 c6.7638-12.5449,13.4324-25.1507,20.6016-37.4632c3.4131-5.8615,3.2495-9.7457-2.0239-14.795 c-13.6809-13.0998-26.5014-27.0919-39.8809-40.5133c-5.9979-6.0168-12.457-11.5812-18.8094-17.2355 c-4.0624-3.6159-3.2031-5.899,0.4067-9.568c9.0897-9.239,18.7011-5.1781,28.3465-2.2516 c19.7157,5.9818,39.4229,12.0029,59.0161,18.369c5.4229,1.762,8.4708,0.8659,11.4135-4.2565 c12.1805-21.2013,24.7797-42.1621,37.2071-63.222c2.1038-3.5652,3.9427-7.3024,6.2651-10.7145 c0.8281-1.2165,3.1709-2.7118,4.0487-2.3251c2.1145,0.9313,4.8248,2.5708,5.4294,4.5066 c2.4561,7.8659,4.8553,15.8523,6.0982,23.9743c3.3897,22.1521,6.2184,44.3908,9.181,66.607 c0.6314,4.734,2.7892,7.1205,7.7607,8.1825c22.7897,4.8684,45.4892,10.1594,68.2109,15.3437 c1.8463,0.4213,3.668,1.0594,5.41,1.8086c5.2265,2.2482,8.3435,6.3323,7.7135,11.9612c-0.6267,5.5979-4.5848,9.2366-10.036,10.2844 c-14.7558,2.8363-29.5763,5.3374-44.38,7.9216C196.4637,295.0359,188.1256,296.3899,178.441,298.0156z M77.9439,306.3326 c4.7344-1.7422,7.9768-2.9355,12.4883-4.5957c-2.8734-2.3419-4.7108-3.8393-7.1078-5.7929 c-1.6685,3.2214-3.0074,5.8065-4.2868,9.6344c0.0509-0.1541,0.1017-0.3083,0.1524-0.4624 c-0.1479,0.0699-0.3189,0.1143-0.4346,0.2196c-0.069,0.0629-0.0511,0.2213-0.0723,0.3369 C78.8012,305.641,78.9193,305.6097,77.9439,306.3326z M155.6982,281.3813c-0.4563-7.0765-0.4458-12.4071-1.3305-17.5848 c-0.2998-1.7547-2.6111-4.0135-4.4299-4.5247c-12.6396-3.5527-25.4063-6.6507-38.0978-10.0239 c-3.4333-0.9125-5.5774-0.1726-7.1012,3.2399c-2.3398,5.2401-5.0888,10.297-7.6444,15.4415 c-5.2814,10.6317-5.2615,10.6181,3.7845,18.674c2.0654,1.8392,3.7421,4.2596,6.062,5.6232 c1.9246,1.1314,4.7141,1.9194,6.807,1.4534c12.8121-2.8528,25.5613-6.0048,38.2565-9.3428 C153.7874,283.8682,155.1584,281.834,155.6982,281.3813z M152.2175,239.8663c-1.8871-23.577-3.705-46.2886-5.583-69.7525 c-10.2036,20.6128-19.9741,40.351-30.034,60.6736C128.4702,233.8129,139.8875,236.7233,152.2175,239.8663z M158.3283,302.0356 c-10.7128,2.7676-20.3932,5.2684-31.4078,8.1139c13.052,12.1715,24.9159,23.2352,36.7797,34.2988 c0.538-0.3035,1.076-0.6071,1.614-0.9106C163.0275,329.9527,160.7408,316.3676,158.3283,302.0356z M38.0741,228.1839 c-0.2705,0.4796-0.541,0.9593-0.8114,1.4389c12.6764,11.6053,25.3529,23.2107,38.6466,35.3811 c4.0895-7.6813,7.7029-14.4688,11.6906-21.9591C70.4894,237.9105,54.2818,233.0472,38.0741,228.1839z M205.8433,273.9463 c0.0595-0.3307,0.119-0.6614,0.1785-0.992c-10.4255-2.5529-20.851-5.1058-32.2525-7.8977 c0.7816,5.5706,1.3758,9.8062,2.0115,14.3373C186.152,277.5146,195.9977,275.7304,205.8433,273.9463z" style="fill: inherit;"/><path d="M305.7699,31.0806c13.8961,3.0335,26.5338,5.6862,39.1168,8.5757 c8.6713,1.9912,17.3393,4.0673,25.8657,6.5885c4.0993,1.2122,6.2868-0.0602,8.4064-3.3414 c8.185-12.6704,16.4116-25.3186,24.9231-37.7699c1.5125-2.2124,4.456-3.4473,6.7388-5.1335 c1.319,2.2085,3.274,4.2626,3.8537,6.6504c3.8855,16.0021,7.8233,32.0085,10.9502,48.167c0.9041,4.672,2.6492,6.322,6.8918,7.4652 c17.8108,4.7993,35.5374,9.9132,53.259,15.0356c2.1909,0.6332,4.4293,1.6809,6.1975,3.0961 c7.597,6.0796,6.4082,15.0034-2.8221,18.2977c-12.3533,4.4088-24.8851,8.3946-37.5211,11.9134 c-13.7188,3.8203-13.3004,3.4085-10.8496,17.6786c2.4658,14.3587,3.8349,28.9086,5.5717,43.3882 c0.8884,7.4067-4.0912,10.5794-9.8669,13.0949c-5.1606,2.2475-8.4981-0.7119-11.5939-4.0838 c-12.7896-13.9302-25.5952-27.8472-38.2265-41.9201c-2.808-3.1285-5.1136-3.9913-9.2507-2.0535 c-16.5379,7.7465-33.2643,15.0936-49.9596,22.5011c-4.9396,2.1917-10.1684,2.7566-14.3494-1.2232 c-4.5465-4.3278-3.901-9.6912-0.7448-14.5496c9.3808-14.4415,18.7434-28.9051,28.5895-43.0283 c3.2226-4.6227,2.5822-7.1231-0.9546-11.271c-10.3251-12.1095-19.9393-24.8254-29.8048-37.3251 c-2.7552-3.4907-5.6078-6.9304-8.0341-10.6427c-1.1495-1.7585-2.5258-4.7288-1.7979-6.038 C301.4781,33.1391,304.3218,32.0832,305.7699,31.0806z M324.7914,50.6774c-0.1601-0.0992-0.32-0.1985-0.48-0.2977 c0.1783,0.0807,0.3567,0.1614,0.5352,0.242c1.8619,2.4927,3.526,5.1676,5.6219,7.4453 c7.2856,7.9171,14.7208,15.6965,22.6653,24.1293c4.5943-6.8732,8.552-12.7942,13.3421-19.9606 C351.9831,58.2172,338.3872,54.4474,324.7914,50.6774z M367.5083,91.507c6.0977,7.4717,11.102,13.8479,16.4503,19.9213 c0.9129,1.037,3.5403,1.4926,4.9602,1.006c9.1955-3.1506,18.276-6.6367,27.5045-10.0537 c-1.1389-7.8537-2.0811-15.5817-3.5103-23.2188c-0.3034-1.6224-2.1257-3.7362-3.6845-4.2203 c-8.8766-2.7572-17.8856-5.0892-27.1782-7.6566C376.6382,76.2995,371.3083,85.1773,367.5083,91.507z M423.2061,152.3214 c0.5684-0.2135,1.1369-0.427,1.7053-0.6405c-1.5983-9.9129-3.1965-19.8257-4.948-30.6891 c-6.7567,2.4579-12.8616,4.6787-19.374,7.0477C408.5232,136.5576,415.8647,144.4395,423.2061,152.3214z M390.8485,51.9311 c6.5654,1.5921,12.0786,2.9291,18.7351,4.5434c-1.2423-11.6659-2.292-21.5242-3.4892-32.7654 C400.7908,33.5268,396.1669,42.086,390.8485,51.9311z M434.0854,96.6317c8.868-2.8961,17.3335-5.6606,25.799-8.4251 c-0.0167-0.4393-0.0334-0.8786-0.0503-1.3179c-9.4261-2.22-18.8522-4.4399-29.2957-6.8995 C431.8931,86.3461,432.9394,91.2549,434.0854,96.6317z M365.7616,121.3999c-2.7386-4.0454-5.5794-8.2414-8.6677-12.8034 c-4.7538,7.568-8.7388,13.9123-12.7239,20.2567c0.2966,0.3266,0.593,0.6532,0.8895,0.9797 C352.7752,126.7415,360.291,123.6501,365.7616,121.3999z" style="fill: inherit;"/></g></svg>